<svg xmlns="http://www.w3.org/2000/svg" version="1.1" xmlns:xlink="http://www.w3.org/1999/xlink" width="2000" height="1500" viewBox="0 0 2000 1500"><rect width="2000" height="1500" x="0" y="0" id="background" stroke="transparent" fill="#ffffff"></rect><svg xml:space="preserve" width="1500" height="1125" data-version="2" data-id="lg_qZNZVXrV2vTa0XPYSe" viewBox="0 0 709 611" x="250" y="187.5"><rect width="100%" height="100%" fill="transparent"></rect><path fill="#ea5141" stroke="#21272d" stroke-width="2.267" d="M702.095 550.275H6.905"></path><path fill="#28222e" d="M83.18 518.54v7.84H38.87v-61.7h17.01v53.86zm25.02-53.86v61.7H91.19v-61.7zm42.5 7.89v53.81h-17.01v-53.81h-16.8v-7.89h50.6v7.89zm54.02 0v53.81h-17.01v-53.81h-16.79v-7.89h50.6v7.89zm69.8 45.97v7.84h-44.3v-61.7h17v53.86zm52.31-.05v7.89h-44.3v-61.7h44.3v7.89h-27.29v19.06h21.08v7.84h-21.08v19.02zm66.58-38.51-7.33 3.08q-.86-2.78-2.29-5.1-1.44-2.31-3.43-3.96-1.99-1.65-4.52-2.57-2.53-.92-5.53-.92-3.21 0-5.89 1.07-2.67 1.07-4.79 2.89-2.13 1.82-3.71 4.27-1.59 2.44-2.64 5.2-1.05 2.76-1.58 5.72-.54 2.96-.54 5.78 0 4.5 1.05 8.96 1.05 4.45 3.35 8.01 2.29 3.56 5.93 5.76 3.64 2.21 8.82 2.21 2.83 0 4.42-1.26 1.58-1.27 1.58-4.44v-18.94h17.01v30.64h-4.92l-3-4.84q-4.12 3.12-9.07 4.6-4.94 1.48-10.09 1.48-4.54 0-8.71-1.11-4.18-1.12-7.78-3.17-3.6-2.06-6.53-4.97-2.94-2.92-5.02-6.47-2.07-3.56-3.21-7.74-1.14-4.17-1.14-8.72 0-4.54 1.14-8.71 1.14-4.18 3.21-7.76 2.08-3.58 5.02-6.49 2.93-2.91 6.53-4.97 3.6-2.06 7.78-3.17 4.17-1.11 8.71-1.11 4.37 0 8.55 1.02 4.18 1.03 7.78 3.11 3.6 2.08 6.4 5.23 2.81 3.15 4.44 7.39m56.25 38.51v7.89h-44.3v-61.7h44.3v7.89h-27.29v19.06h21.08v7.84h-21.08v19.02zm18.42-34.44v42.33h-7.88v-61.7h11.06l37.48 42.37v-42.37h7.84v61.7h-11.05zm79.48-19.37v61.7h-17.01v-61.7zm19.58 0h12.47q-1.16 3.47-2.02 7.18-.85 3.7-1.41 7.41-.56 3.71-.84 7.31-.27 3.59-.27 6.81 0 2.35.02 5.29.02 2.93.34 5.98.32 3.04 1.05 5.93.73 2.89 2.16 5.16 1.44 2.27 3.69 3.64t5.59 1.37q2.96 0 5.08-1 2.12-1.01 3.59-2.72 1.48-1.72 2.36-3.94.88-2.23 1.37-4.67.5-2.45.65-4.95.15-2.51.15-4.78v-34.02h17v31.36q0 6.73-2.14 12.51-2.14 5.79-6.04 10.05-3.9 4.26-9.42 6.68-5.53 2.43-12.26 2.43-4.63 0-8.61-1.31-3.98-1.31-7.3-3.6-3.33-2.29-5.92-5.44-2.59-3.15-4.32-6.88-1.74-3.73-2.64-7.86-.9-4.13-.81-8.38v-.85q.04-3.43.68-7.09.64-3.67 1.74-7.35 1.09-3.69 2.63-7.31 1.54-3.62 3.43-6.96m114.78 42.85q0 3.98-1.01 7.02-1.01 3.04-2.83 5.27-1.82 2.23-4.3 3.73-2.49 1.5-5.42 2.4-2.94.9-6.21 1.28-3.28.39-6.67.39-4.45 0-8.22-.66-3.77-.67-7.09-2.1-3.32-1.44-6.39-3.71-3.06-2.27-6.1-5.53l8.74-8.87q1.2 2.96 3.3 5.47 2.1 2.5 4.6 4.3 2.51 1.8 5.21 2.83t5.1 1.03q2.82 0 5.31-.41 2.48-.4 4.33-1.35 1.84-.94 2.89-2.5 1.05-1.57 1.05-3.92 0-1.8-.82-3.09-.81-1.28-2.12-2.21-1.3-.92-2.97-1.56-1.67-.64-3.41-1.09-1.74-.45-3.41-.82-1.67-.36-2.95-.75-2.53-.72-5.27-1.56-2.74-.83-5.4-1.91-2.66-1.07-5.03-2.46-2.38-1.39-4.18-3.3-1.8-1.9-2.87-4.41-1.07-2.51-1.07-5.76 0-3.9.96-6.92t2.72-5.25q1.76-2.23 4.16-3.75 2.4-1.52 5.27-2.44 2.87-.92 6.1-1.33 3.24-.41 6.62-.41 4.63 0 8.42.86t7.01 2.44q3.21 1.59 5.89 3.79 2.67 2.21 5.03 4.91l-8.74 8.87q-1.03-3.09-2.85-5.57-1.82-2.49-4.05-4.27-2.23-1.77-4.67-2.74-2.44-.96-4.71-.96-2.96 0-5.44.41-2.49.4-4.26 1.32-1.78.93-2.77 2.49-.98 1.56-.98 3.88 0 1.84.72 3.12.73 1.29 1.95 2.19 1.23.9 2.77 1.48t3.19 1q1.65.43 3.26.75 1.6.33 2.93.71 2.57.73 5.4 1.54 2.83.82 5.57 1.91 2.74 1.09 5.23 2.51 2.48 1.41 4.37 3.36 1.88 1.95 2.99 4.5 1.12 2.55 1.12 5.85"></path><path fill="#21272d" d="M121.56 580.74h-6.28v24.07h-2.37v-24.07h-6.28v-2.26h14.93zm18.58 24.07h-2.37v-12.02h-10.08v12.02h-2.37v-26.33h2.37v12.05h10.08v-12.05h2.37zm20.84 0h-14.82v-26.33h14.82v2.26h-12.45v9.79h10.08v2.26h-10.08v9.76h12.45zm27.98-24.07h-12.44v9.79h10.08v2.26h-10.08v12.02h-2.37v-26.33h14.81zm18.2 17.98q0 1.34-.5 2.51-.51 1.18-1.39 2.06-.88.88-2.06 1.38-1.17.51-2.51.51h-1.88q-1.34 0-2.52-.51-1.18-.5-2.07-1.38-.88-.88-1.38-2.06-.51-1.17-.51-2.51v-20.24h2.37v20.24q0 .88.33 1.64.33.76.91 1.34.58.58 1.34.91.76.33 1.65.33h1.65q.88 0 1.64-.33.76-.33 1.33-.91.57-.58.9-1.34.33-.76.33-1.64v-20.24h2.37zm18.33-17.98h-6.28v24.07h-2.37v-24.07h-6.28v-2.26h14.93zm18.19 17.98q0 1.34-.5 2.51-.51 1.18-1.39 2.06-.88.88-2.06 1.38-1.17.51-2.51.51h-1.87q-1.34 0-2.53-.51-1.18-.5-2.06-1.38-.89-.88-1.39-2.06-.51-1.17-.51-2.51v-20.24h2.37v20.24q0 .88.33 1.64.33.76.91 1.34.58.58 1.34.91.77.33 1.65.33h1.65q.88 0 1.64-.33.76-.33 1.33-.91.57-.58.9-1.34.33-.76.33-1.64v-20.24h2.37zm20.77 6.09h-2.74l-7.14-11.24h-3.25v11.24h-2.37v-26.33h8.36q1.34 0 2.51.51 1.18.5 2.06 1.38.88.88 1.39 2.07.5 1.18.5 2.52v2.13q0 1.34-.5 2.53-.51 1.18-1.39 2.06-.88.89-2.06 1.39-1.17.5-2.51.5zm-3.05-17.72v-2.13q0-.88-.33-1.64-.33-.76-.9-1.34-.57-.58-1.33-.91-.76-.33-1.64-.33h-5.88v10.58h5.88q.88 0 1.64-.33.76-.33 1.33-.91.57-.58.9-1.34.33-.77.33-1.65m22.38 17.72h-14.81v-26.33h14.81v2.26h-12.44v9.79h10.08v2.26h-10.08v9.76h12.44zm27.6-6.09q0 1.34-.5 2.51-.51 1.18-1.39 2.06-.88.88-2.06 1.38-1.17.51-2.51.51h-1.87q-1.34 0-2.53-.51-1.18-.5-2.06-1.38-.89-.88-1.39-2.06-.51-1.17-.51-2.51v-14.14q0-1.34.51-2.52.5-1.17 1.39-2.05.88-.89 2.06-1.39 1.19-.51 2.53-.51h1.87q1.34 0 2.51.51 1.18.5 2.06 1.39.88.88 1.39 2.05.5 1.18.5 2.52zm-2.37 0v-14.14q0-.88-.33-1.65-.33-.76-.9-1.33-.57-.57-1.33-.9-.76-.33-1.64-.33h-1.65q-.89 0-1.65.33-.76.33-1.34.9-.58.57-.91 1.33-.33.77-.33 1.65v14.14q0 .88.33 1.64.33.76.91 1.34.58.58 1.34.91.76.33 1.65.33h1.65q.88 0 1.64-.33.76-.33 1.33-.91.57-.58.9-1.34.33-.76.33-1.64m22.85-17.98h-12.45v9.79h10.08v2.26h-10.08v12.02h-2.37v-26.33h14.82zm26.84 17.98q0 1.34-.5 2.51-.51 1.18-1.39 2.06-.88.88-2.06 1.38-1.17.51-2.51.51h-1.88q-1.34 0-2.52-.51-1.19-.5-2.07-1.38-.88-.88-1.38-2.06-.51-1.17-.51-2.51v-14.14q0-1.34.51-2.52.5-1.17 1.38-2.05.88-.89 2.07-1.39 1.18-.51 2.52-.51h1.88q1.34 0 2.51.51 1.18.5 2.06 1.39.88.88 1.39 2.05.5 1.18.5 2.52zm-2.37 0v-14.14q0-.88-.33-1.65-.33-.76-.9-1.33-.57-.57-1.33-.9-.76-.33-1.64-.33h-1.66q-.88 0-1.64.33-.76.33-1.34.9-.58.57-.91 1.33-.33.77-.33 1.65v14.14q0 .88.33 1.64.33.76.91 1.34.58.58 1.34.91.76.33 1.64.33h1.66q.88 0 1.64-.33.76-.33 1.33-.91.57-.58.9-1.34.33-.76.33-1.64m22.84 6.09h-1.25l-10.98-19.17-.22-1.14v20.31h-2.36v-26.33h1.23l10.98 19.19.23 1.12v-20.31h2.37zm18.09 0h-12.45v-26.33h2.37v24.07h10.08zm6.13 0h-2.37v-26.33h2.37zm20.84 0h-1.25L412 585.64l-.22-1.14v20.31h-2.37v-26.33h1.24l10.98 19.19.23 1.12v-20.31h2.37zm20.84 0h-14.81v-26.33h14.81v2.26h-12.45v9.79h10.08v2.26h-10.08v9.76h12.45zm25.23 0h-12.45v-26.33h2.37v24.07h10.08zm18.58 0h-14.81v-26.33h14.81v2.26h-12.44v9.79h10.08v2.26h-10.08v9.76h12.44zm16.14 0-1.74-6.13h-8.34l-1.72 6.13h-2.46l7.71-26.33h1.25l7.75 26.33zm-5.98-20.53-3.45 12.14h7.07l-3.47-12.14-.08-.97zm26.92 20.53h-2.74l-7.14-11.24h-3.25v11.24h-2.37v-26.33h8.35q1.34 0 2.52.51 1.17.5 2.06 1.38.88.88 1.38 2.07.51 1.18.51 2.52v2.13q0 1.34-.51 2.53-.5 1.18-1.38 2.06-.89.89-2.06 1.39-1.18.5-2.52.5zm-3.05-17.72v-2.13q0-.88-.33-1.64-.33-.76-.9-1.34-.57-.58-1.33-.91-.77-.33-1.65-.33h-5.87v10.58h5.87q.88 0 1.65-.33.76-.33 1.33-.91.57-.58.9-1.34.33-.77.33-1.65m22.38 17.72h-1.25l-10.98-19.17-.22-1.14v20.31h-2.37v-26.33h1.23l10.98 19.19.24 1.12v-20.31h2.37zm8.39 0h-2.37v-26.33h2.37zm20.84 0h-1.25l-10.98-19.17-.22-1.14v20.31h-2.36v-26.33h1.23l10.98 19.19.23 1.12v-20.31h2.37zm20.46-13.84v13.84h-.75l-1.38-2.11q-.87 1.14-2.1 1.81-1.23.67-2.73.67h-1.38q-1.34 0-2.52-.51-1.19-.5-2.07-1.38-.88-.88-1.38-2.06-.51-1.17-.51-2.51v-14.14q0-1.34.51-2.52.5-1.17 1.38-2.05.88-.89 2.07-1.39 1.18-.51 2.52-.51h1.87q1.35 0 2.52.51 1.18.5 2.06 1.39.88.88 1.38 2.05.51 1.18.51 2.52v1.06l-2.37.37v-1.43q0-.88-.33-1.65-.33-.76-.9-1.33-.57-.57-1.33-.9-.76-.33-1.65-.33h-1.65q-.88 0-1.64.33-.76.33-1.34.9-.58.57-.91 1.33-.33.77-.33 1.65v14.14q0 .88.33 1.64.33.76.91 1.34.58.58 1.34.91.76.33 1.64.33h1.65q.89 0 1.65-.33.76-.33 1.33-.91.57-.58.9-1.34.33-.76.33-1.64v-5.49h-4.21v-2.26zm8.24-12.49-1.01 18.36h-1.32l-1.01-18.36zm-.25 26.33h-2.83v-2.83h2.83z"></path><path fill="#42c4eb" d="M353.895 429.37c-63.068 0-114.85-51.118-114.85-114.85 0-5.975 4.648-10.622 10.623-10.622 5.974 0 10.621 4.647 10.621 10.622 0 51.118 41.824 92.942 92.942 92.942s92.942-41.824 92.942-92.942c0-5.975 4.647-10.622 10.622-10.622s10.622 4.647 10.622 10.622c1.328 63.068-49.79 114.85-113.522 114.85M247.012 259.419c-17.924 0-33.193-14.605-33.193-33.194 0-17.924 14.605-33.193 33.193-33.193s33.194 14.605 33.194 33.193-14.606 33.194-33.194 33.194m0-44.48c-6.639 0-11.286 5.311-11.286 11.286s5.311 11.286 11.286 11.286 11.286-5.31 11.286-11.286c0-5.975-4.647-11.285-11.286-11.285m215.094 44.479c-17.925 0-33.194-14.605-33.194-33.194 0-17.924 14.606-33.193 33.194-33.193s33.193 14.605 33.193 33.193c-.663 18.589-15.269 33.194-33.193 33.194m0-44.48c-6.639 0-11.286 5.311-11.286 11.286s5.311 11.286 11.286 11.286 11.286-5.31 11.286-11.286c0-5.975-5.311-11.285-11.286-11.285M330.66 262.074c-5.975 0-10.622-4.647-10.622-10.622v-77.009c0-5.974 4.647-10.621 10.622-10.621s10.622 4.647 10.622 10.621v77.01c.663 5.31-4.647 10.621-10.622 10.621m46.47 0c-5.974 0-10.621-4.647-10.621-10.622v-77.009c0-5.974 4.647-10.621 10.622-10.621 5.974 0 10.622 4.647 10.622 10.621v77.01c0 5.31-4.648 10.621-10.622 10.621m10.622 41.824h-67.051c-5.975 0-10.622-4.647-10.622-10.622s4.647-10.622 10.622-10.622h67.05c5.975 0 10.622 4.647 10.622 10.622s-4.647 10.622-10.621 10.622"></path><path fill="#42c4eb" d="M387.753 346.386h-67.051c-5.975 0-10.622-4.647-10.622-10.622s4.647-10.622 10.622-10.622h67.05c5.975 0 10.622 4.647 10.622 10.622s-4.647 10.622-10.621 10.622m-1.992-164.64c-4.647 0-8.63-2.655-9.958-7.303-1.992-5.31.664-11.95 6.639-13.94a68.71 68.71 0 0 0-23.9-133.439 69.042 69.042 0 0 0-26.555 132.774c5.311 1.992 7.967 8.63 5.975 13.942-1.991 5.31-8.63 7.966-13.941 5.974-33.857-13.94-55.765-46.47-55.765-83.647 0-49.79 40.496-90.287 90.286-90.287a90.353 90.353 0 0 1 31.202 175.262c-1.991 0-3.32.664-3.983.664"></path></svg></svg>